<svg xmlns="http://www.w3.org/2000/svg" viewBox="0 0 120 80" width="120" height="80">
<defs><radialGradient id="sk" cx="0.38" cy="0.3" r="0.85"><stop offset="0" stop-color="#fff0df" /><stop offset="0.55" stop-color="#ffd9b3" /><stop offset="1" stop-color="#eaa57c" /></radialGradient><linearGradient id="hr" x1="0" y1="0" x2="0" y2="1"><stop offset="0" stop-color="#4a5390" /><stop offset="0.55" stop-color="#1b2033" /><stop offset="1" stop-color="#0e1222" /></linearGradient><linearGradient id="sh" x1="0" y1="0" x2="0.4" y2="1"><stop offset="0" stop-color="#ffffff" /><stop offset="1" stop-color="#c5cde8" /></linearGradient><linearGradient id="tie" x1="0" y1="0" x2="0" y2="1"><stop offset="0" stop-color="#ff7a7f" /><stop offset="1" stop-color="#c9242b" /></linearGradient><linearGradient id="fr" x1="0" y1="0" x2="1" y2="0"><stop offset="0" stop-color="#7b6dff" /><stop offset="1" stop-color="#3326b8" /></linearGradient><radialGradient id="wh" cx="0.5" cy="0.5" r="0.6"><stop offset="0" stop-color="#ffffff" /><stop offset="0.8" stop-color="#e6e9f6" /><stop offset="1" stop-color="#b9bfd8" /></radialGradient><linearGradient id="sn" x1="0" y1="0" x2="0" y2="1"><stop offset="0" stop-color="#ffffff" /><stop offset="1" stop-color="#c9cfe6" /></linearGradient></defs>
<ellipse cx="62" cy="77.4" rx="44" ry="2.6" fill="#1b2033" opacity="0.22" />
<g stroke="#8a93b8" stroke-width="2" stroke-linecap="round" fill="none" opacity="0.7"><path d="M12 30H2" /><path d="M14 44H4" /></g>
<circle cx="30" cy="62" r="14" fill="url(#wh)" stroke="#1b2033" stroke-width="2" />
<circle cx="30" cy="62" r="9" fill="none" stroke="#8a93b8" stroke-width="1.4" /><path d="M30 53V71M21 62H39M23.6 55.6L36.4 68.4M36.4 55.6L23.6 68.4" stroke="#b9bfd8" stroke-width="0.9" />
<circle cx="30" cy="62" r="3" fill="#ffd23f" />
<circle cx="94" cy="62" r="14" fill="url(#wh)" stroke="#1b2033" stroke-width="2" />
<circle cx="94" cy="62" r="9" fill="none" stroke="#8a93b8" stroke-width="1.4" /><path d="M94 53V71M85 62H103M87.6 55.6L100.4 68.4M100.4 55.6L87.6 68.4" stroke="#b9bfd8" stroke-width="0.9" />
<circle cx="94" cy="62" r="3" fill="#ffd23f" />
<path d="M30 62L54 60L48 38L84 40L94 62M54 60L84 40M84 40L82 30H90" fill="none" stroke="#2a1f94" stroke-width="6" stroke-linecap="round" stroke-linejoin="round" /><path d="M30 62L54 60L48 38L84 40L94 62M54 60L84 40M84 40L82 30H90" fill="none" stroke="#5a4cf0" stroke-width="4" stroke-linecap="round" stroke-linejoin="round" /><path d="M30 62L54 60L48 38L84 40L94 62M54 60L84 40M84 40L82 30H90" fill="none" stroke="#ffffff" stroke-width="1.2" stroke-linecap="round" stroke-linejoin="round" opacity="0.28" transform="translate(-0.6 -0.9)" />
<path d="M42 36H58" fill="none" stroke="#232846" stroke-width="4" stroke-linecap="round" stroke-linejoin="round" /><path d="M42 36H58" fill="none" stroke="#4a5072" stroke-width="2" stroke-linecap="round" stroke-linejoin="round" /><path d="M42 36H58" fill="none" stroke="#ffffff" stroke-width="1" stroke-linecap="round" stroke-linejoin="round" opacity="0.28" transform="translate(-0.6 -0.9)" />
<path d="M52 44L42 54L48 66" fill="none" stroke="#232846" stroke-width="10" stroke-linecap="round" stroke-linejoin="round" /><path d="M52 44L42 54L48 66" fill="none" stroke="#4a5072" stroke-width="8" stroke-linecap="round" stroke-linejoin="round" /><path d="M52 44L42 54L48 66" fill="none" stroke="#ffffff" stroke-width="2" stroke-linecap="round" stroke-linejoin="round" opacity="0.28" transform="translate(-0.6 -0.9)" />
<ellipse cx="48" cy="68" rx="6.5" ry="3.6" fill="url(#sn)" />
<rect x="46" y="22" width="22" height="26" rx="9" fill="url(#sh)" transform="rotate(25 57 35)" />
<path d="M54 26Q57 23 61 23.5" stroke="#ffffff" stroke-width="2" stroke-linecap="round" fill="none" opacity="0.8" />
<path d="M63 26l6 3-2 11-5-3z" fill="url(#tie)" />
<path d="M56 46L70 52L62 64" fill="none" stroke="#2f3558" stroke-width="10" stroke-linecap="round" stroke-linejoin="round" /><path d="M56 46L70 52L62 64" fill="none" stroke="#6b7189" stroke-width="8" stroke-linecap="round" stroke-linejoin="round" /><path d="M56 46L70 52L62 64" fill="none" stroke="#ffffff" stroke-width="2" stroke-linecap="round" stroke-linejoin="round" opacity="0.28" transform="translate(-0.6 -0.9)" />
<ellipse cx="62" cy="66" rx="7" ry="3.6" fill="url(#sn)" />
<path d="M68 34L86 34" fill="none" stroke="#8c94b8" stroke-width="8" stroke-linecap="round" stroke-linejoin="round" /><path d="M68 34L86 34" fill="none" stroke="#f5f7fd" stroke-width="6" stroke-linecap="round" stroke-linejoin="round" /><path d="M68 34L86 34" fill="none" stroke="#ffffff" stroke-width="1.6" stroke-linecap="round" stroke-linejoin="round" opacity="0.28" transform="translate(-0.6 -0.9)" />
<circle cx="88" cy="32" r="4.2" fill="url(#sk)" />
<circle cx="72" cy="20" r="16" fill="url(#sk)" />
<path d="M57 19C56 6 70 1 81 5C88 8 89 15 88 19C84 14 78 12 72 12C65 12 60 15 57 19z" fill="url(#hr)" />
<path d="M61 6Q69 2 79 5" stroke="#ffffff" stroke-width="1.8" stroke-linecap="round" fill="none" opacity="0.4" />
<circle cx="66" cy="22" r="5.6" fill="#ffffff" fill-opacity="0.55" stroke="#1b2033" stroke-width="1.8" />
<circle cx="79" cy="22" r="5.6" fill="#ffffff" fill-opacity="0.55" stroke="#1b2033" stroke-width="1.8" />
<path d="M71.6 22H73.4" stroke="#1b2033" stroke-width="1.8" stroke-linecap="round" />
<circle cx="67.4" cy="23" r="2.2" fill="#1b2033" /><circle cx="80.4" cy="23" r="2.2" fill="#1b2033" />
<circle cx="68" cy="22.2" r="0.8" fill="#ffffff" /><circle cx="81" cy="22.2" r="0.8" fill="#ffffff" />
<ellipse cx="61" cy="28" rx="3" ry="1.9" fill="#ff7f8f" opacity="0.45" />
<ellipse cx="83" cy="28" rx="2.6" ry="1.8" fill="#ff7f8f" opacity="0.45" />
<path d="M69 31q4 2.4 8 0" stroke="#a8453d" stroke-width="1.8" stroke-linecap="round" fill="none" />
<path d="M54 12q3 5 0 8-3-3 0-8z" fill="#8fd3ff" />
</svg>
